<svg width="208" height="77" viewBox="0 0 208 77" fill="none" xmlns="http://www.w3.org/2000/svg">
<path d="M122.392 70.216C120.76 70.216 119.284 69.856 117.964 69.136C116.668 68.392 115.636 67.3 114.868 65.86C114.124 64.42 113.752 62.62 113.752 60.46C113.752 58.3 114.136 56.5 114.904 55.06C115.696 53.62 116.74 52.54 118.036 51.82C119.356 51.1 120.808 50.74 122.392 50.74C124.264 50.74 125.92 51.148 127.36 51.964C128.8 52.78 129.94 53.92 130.78 55.384C131.62 56.824 132.04 58.516 132.04 60.46C132.04 62.404 131.62 64.108 130.78 65.572C129.94 67.036 128.8 68.176 127.36 68.992C125.92 69.808 124.264 70.216 122.392 70.216ZM112.276 70V43.288H115.732V55.996L115.372 60.424L115.588 64.852V70H112.276ZM122.104 67.192C123.328 67.192 124.42 66.916 125.38 66.364C126.364 65.812 127.132 65.032 127.684 64.024C128.26 62.992 128.548 61.804 128.548 60.46C128.548 59.092 128.26 57.916 127.684 56.932C127.132 55.924 126.364 55.144 125.38 54.592C124.42 54.04 123.328 53.764 122.104 53.764C120.904 53.764 119.812 54.04 118.828 54.592C117.868 55.144 117.1 55.924 116.524 56.932C115.972 57.916 115.696 59.092 115.696 60.46C115.696 61.804 115.972 62.992 116.524 64.024C117.1 65.032 117.868 65.812 118.828 66.364C119.812 66.916 120.904 67.192 122.104 67.192ZM148.483 70V65.968L148.303 65.212V58.336C148.303 56.872 147.871 55.744 147.007 54.952C146.167 54.136 144.895 53.728 143.191 53.728C142.063 53.728 140.959 53.92 139.879 54.304C138.799 54.664 137.887 55.156 137.143 55.78L135.703 53.188C136.687 52.396 137.863 51.796 139.231 51.388C140.623 50.956 142.075 50.74 143.587 50.74C146.203 50.74 148.219 51.376 149.635 52.648C151.051 53.92 151.759 55.864 151.759 58.48V70H148.483ZM142.219 70.216C140.803 70.216 139.555 69.976 138.475 69.496C137.419 69.016 136.603 68.356 136.027 67.516C135.451 66.652 135.163 65.68 135.163 64.6C135.163 63.568 135.403 62.632 135.883 61.792C136.387 60.952 137.191 60.28 138.295 59.776C139.423 59.272 140.935 59.02 142.831 59.02H148.879V61.504H142.975C141.247 61.504 140.083 61.792 139.483 62.368C138.883 62.944 138.583 63.64 138.583 64.456C138.583 65.392 138.955 66.148 139.699 66.724C140.443 67.276 141.475 67.552 142.795 67.552C144.091 67.552 145.219 67.264 146.179 66.688C147.163 66.112 147.871 65.272 148.303 64.168L148.987 66.544C148.531 67.672 147.727 68.572 146.575 69.244C145.423 69.892 143.971 70.216 142.219 70.216ZM168.343 50.74C169.903 50.74 171.271 51.04 172.447 51.64C173.647 52.24 174.583 53.152 175.255 54.376C175.927 55.6 176.263 57.148 176.263 59.02V70H172.807V59.416C172.807 57.568 172.351 56.176 171.439 55.24C170.551 54.304 169.291 53.836 167.659 53.836C166.435 53.836 165.367 54.076 164.455 54.556C163.543 55.036 162.835 55.744 162.331 56.68C161.851 57.616 161.611 58.78 161.611 60.172V70H158.155V50.92H161.467V56.068L160.927 54.7C161.551 53.452 162.511 52.48 163.807 51.784C165.103 51.088 166.615 50.74 168.343 50.74ZM185.467 65.392L185.539 60.964L196.519 50.92H200.695L192.271 59.2L190.399 60.784L185.467 65.392ZM182.659 70V43.288H186.115V70H182.659ZM197.239 70L189.751 60.712L191.983 57.94L201.487 70H197.239Z" fill="white"/>
<path fill-rule="evenodd" clip-rule="evenodd" d="M26.4112 0H36.8884V4.09669H26.4112V0ZM26.4476 48.967V53.0637L13.2784 53.0792C2.91033 53.0946 0.0945856 53.0792 0.0582065 53.0019C0.0291033 52.9555 0 52.0666 0 51.0386C0 50.0028 0.0218274 49.1062 0.0436549 49.0443C0.080034 48.9438 1.5934 48.9284 26.4476 48.967ZM26.4112 8.19338H44.8918V12.2901H26.4112V8.19338ZM26.4112 16.3868H52.8224V20.4834H26.4112V16.3868ZM26.4112 24.5028H44.8627L44.8554 28.6382L26.4112 28.6768V24.5028ZM18.4806 32.6962H34.3418V36.7929H18.4806V32.6962ZM8.0034 40.8123H26.4549L26.4476 44.9476L8.0034 44.9863V40.8123ZM8.0034 57.1217H26.484V61.2957H8.0034V57.1217ZM15.934 65.3074L26.4476 65.3538L26.484 69.4891H15.934V65.3074Z" fill="#FFC513"/>
<path fill-rule="evenodd" clip-rule="evenodd" d="M33 43L39.6355 43.0309C45.609 43.0541 46.322 43.0696 46.7804 43.1932C47.0569 43.2628 47.5371 43.4097 47.8354 43.5179C48.1337 43.6261 48.5921 43.8348 48.854 43.9817C49.1159 44.1285 49.5379 44.43 49.7999 44.6541C50.0618 44.8783 50.4329 45.2725 50.622 45.5198C50.8185 45.7749 51.1168 46.2928 51.2987 46.6793C51.4733 47.0658 51.6916 47.6532 51.7716 47.9933C51.8516 48.3334 51.9389 48.975 51.9608 49.4233C51.9899 49.9103 51.968 50.4977 51.9098 50.8919C51.8662 51.2552 51.7352 51.8117 51.6261 52.1287C51.5242 52.4456 51.306 52.9557 51.1459 53.2495C50.9858 53.5432 50.6584 54.0147 50.4183 54.2852C50.1782 54.5558 49.7198 54.9577 49.3997 55.1819C49.0796 55.3983 48.643 55.6611 48.4393 55.7461C48.2283 55.8389 47.9955 55.9162 47.93 55.9239C47.8572 55.9239 48.01 56.0089 48.2719 56.1017C48.5339 56.2022 48.8904 56.3568 49.0723 56.4572C49.2542 56.55 49.5452 56.7432 49.7271 56.8669C49.909 56.9983 50.2437 57.2998 50.4838 57.5316C50.7166 57.7713 51.0731 58.2273 51.2768 58.5442C51.4806 58.8611 51.7571 59.3713 51.888 59.665C52.019 59.9587 52.1936 60.4844 52.2809 60.8245C52.4119 61.3346 52.441 61.6515 52.441 62.6023C52.441 63.4216 52.4046 63.9318 52.3173 64.3414C52.2518 64.6583 52.0917 65.184 51.9753 65.5009C51.8516 65.8178 51.6334 66.2893 51.4878 66.5444C51.3423 66.7994 50.9931 67.2632 50.7093 67.5801C50.4329 67.8893 49.989 68.299 49.7271 68.4768C49.4652 68.6623 49.0359 68.9174 48.7667 69.0488C48.4902 69.1802 47.9664 69.3734 47.6026 69.4816C47.2315 69.5821 46.5694 69.7058 46.1256 69.7521C45.609 69.8063 43.1716 69.8294 33.0291 69.7908L33 43ZM36.8489 54.3702C42.6841 54.3702 44.6049 54.3316 44.8741 54.2929C45.1433 54.2466 45.5362 54.1461 45.7472 54.0611C45.9582 53.9838 46.3366 53.7673 46.5912 53.5818C46.8823 53.3809 47.166 53.0871 47.3406 52.8243C47.5007 52.5924 47.6899 52.206 47.7699 51.9741C47.8572 51.7422 47.9591 51.2861 48.0027 50.9692C48.0682 50.4977 48.0609 50.2736 47.9664 49.7711C47.9081 49.431 47.7626 48.9441 47.6462 48.6967C47.5298 48.4416 47.3043 48.0783 47.1369 47.8851C46.9768 47.6841 46.6785 47.4213 46.4821 47.2822C46.2856 47.1508 45.8636 46.9421 45.5435 46.8184L44.9614 46.602L36.8635 46.5479L36.8489 54.3702ZM36.8489 66.1965C45.0779 66.1579 45.3543 66.1424 45.8345 65.9956C46.111 65.9105 46.5185 65.7405 46.7367 65.6168C46.9477 65.4931 47.3043 65.1762 47.5225 64.9211C47.7481 64.6661 48.0027 64.295 48.0973 64.0941C48.1919 63.8931 48.3229 63.5066 48.3883 63.2438C48.4611 62.9656 48.512 62.4631 48.512 62.0612C48.512 61.6206 48.4611 61.1955 48.3811 60.9018C48.3156 60.6467 48.1774 60.2834 48.09 60.0901C48.0027 59.9046 47.7481 59.5336 47.5298 59.2785C47.2679 58.9848 46.9477 58.7143 46.6276 58.5365C46.3511 58.3819 45.9291 58.1887 45.689 58.1114C45.2961 57.9954 44.8086 57.9722 41.0543 57.949L36.8562 57.9181L36.8489 66.1965ZM57.0829 43L62.4816 43.0309C67.662 43.0618 67.9094 43.0696 68.717 43.2319C69.1754 43.3246 69.8593 43.487 70.2449 43.5952C70.6232 43.7034 71.2635 43.9276 71.6637 44.0976C72.0639 44.2677 72.6823 44.5846 73.0461 44.801C73.4026 45.0174 73.941 45.3884 74.2466 45.6281C74.5449 45.86 74.9815 46.231 75.2216 46.4474C75.4544 46.6638 75.9128 47.1663 76.2329 47.5682C76.553 47.9779 76.9969 48.604 77.2151 48.9595C77.4407 49.3228 77.7754 49.9644 77.9573 50.3895C78.1464 50.8146 78.4156 51.5799 78.5612 52.09C78.7067 52.6002 78.874 53.319 78.9322 53.6746C78.9977 54.0379 79.085 54.8031 79.1287 55.3751C79.1941 56.1403 79.1941 56.6969 79.1287 57.4621C79.085 58.0418 78.9832 58.8921 78.8958 59.3558C78.8085 59.8273 78.6194 60.608 78.4666 61.095C78.3138 61.5897 78.0518 62.2854 77.8845 62.6409C77.7099 63.0042 77.4043 63.5762 77.1933 63.9163C76.9896 64.2564 76.5749 64.8516 76.2693 65.2303C75.971 65.6168 75.418 66.2043 75.0397 66.5444C74.6613 66.8767 74.1084 67.3251 73.81 67.5338C73.5045 67.7425 72.9006 68.098 72.464 68.3222C72.0202 68.5541 71.2999 68.8632 70.8633 69.0178C70.4195 69.1724 69.6701 69.3811 69.1899 69.4893C68.7097 69.5898 67.8875 69.7058 67.371 69.7521C66.8471 69.7985 64.3369 69.8294 57.0757 69.8294L57.0829 43ZM60.9246 66.2043C65.7557 66.2043 66.8253 66.1656 67.4728 66.0883C67.9748 66.0265 68.6806 65.8873 69.0371 65.7791C69.4009 65.6632 69.9539 65.439 70.274 65.269C70.5941 65.1067 71.118 64.7897 71.4381 64.5656C71.7583 64.3414 72.2894 63.8777 72.6095 63.5375C72.937 63.1897 73.4172 62.5482 73.7227 62.0689C74.0065 61.5974 74.3485 60.9404 74.4649 60.6003C74.5886 60.2602 74.7486 59.7346 74.8287 59.4409C74.9014 59.1394 75.0178 58.5829 75.076 58.2041C75.1415 57.8022 75.1925 57.0524 75.1925 56.4418C75.1852 55.8621 75.1561 55.1123 75.1124 54.7799C75.0688 54.4553 74.9523 53.8678 74.8578 53.4891C74.7632 53.1026 74.5886 52.5151 74.4649 52.175C74.3485 51.8349 74.0574 51.232 73.8246 50.8378C73.5918 50.4436 73.1625 49.8407 72.8569 49.4929C72.5586 49.145 72.1002 48.689 71.8383 48.4803C71.5836 48.2793 71.0598 47.9392 70.6742 47.7305C70.2958 47.5295 69.6701 47.2513 69.2772 47.1199C68.8843 46.9885 68.2659 46.8184 67.8948 46.7489C67.371 46.6561 66.527 46.6175 64.0823 46.5865L60.9464 46.5479L60.9246 66.2043ZM83.6251 43.0155L89.1184 43.0232L89.584 44.2367C89.8387 44.9092 90.5008 46.6329 91.0465 48.0783C91.5994 49.5238 92.2979 51.3712 92.6035 52.175C92.9091 52.9866 93.3674 54.1847 93.6221 54.8417C93.8767 55.5065 94.5607 57.292 95.1427 58.8225C95.7248 60.353 96.2414 61.7288 96.4015 62.1462L96.9762 60.6389C97.2891 59.8119 97.9003 58.1964 98.3368 57.0447C98.7806 55.9007 99.4791 54.0765 99.8866 52.9866C100.294 51.9045 101.007 50.0262 101.473 48.8127C101.931 47.6068 102.52 46.0532 102.782 45.373C103.044 44.6928 103.357 43.8966 103.692 43.0541L109.134 43.0155L109.163 69.8372H105.307L105.271 48.8513L104.732 50.2426C104.434 51.0079 103.75 52.7857 103.212 54.1847C102.673 55.5915 101.815 57.8331 101.305 59.1703C100.789 60.5153 99.9302 62.7569 99.3918 64.1559C98.8534 65.5627 98.1404 67.4178 97.1945 69.8449H95.5938L95.2519 68.9328C95.0627 68.4304 94.6116 67.2555 94.2405 66.3202C93.8767 65.3849 93.4839 64.3646 93.3674 64.04C93.2583 63.7231 92.9309 62.8728 92.6471 62.1462C92.3634 61.4274 91.8977 60.2293 91.614 59.4795C91.3375 58.7375 90.8136 57.3848 90.4644 56.465C90.1079 55.5529 89.4603 53.8678 89.0238 52.7161C88.5872 51.5721 88.0706 50.2194 87.5177 48.7972L87.4813 69.8372L83.6615 69.7985L83.6251 43.0155Z" fill="#FFC513"/>
</svg>
